ply
format ascii 1.0
element vertex 74
property float x
property float y
property float z
property uchar red
property uchar green
property uchar blue
end_header
626345.739990 3994310.310059 302.670013 255 111 111
626346.029999 3994300.699951 297.290009 255 111 111
626353.440002 3994289.910034 293.070007 255 111 111
626357.339996 3994281.469971 289.489990 255 111 111
626362.929993 3994273.729980 286.730011 255 111 111
626371.239990 3994263.010010 282.559998 255 111 111
626379.589996 3994257.670044 279.720001 255 111 111
626387.880005 3994249.709961 273.200012 255 111 111
626396.910004 3994248.709961 269.000000 255 111 111
626405.140015 3994254.510010 268.619995 255 111 111
626413.000000 3994261.729980 268.459991 255 111 111
626419.989990 3994268.699951 267.059998 255 111 111
626428.140015 3994273.329956 263.709991 255 111 111
626436.350006 3994278.780029 260.630005 255 111 111
626443.820007 3994285.989990 258.640015 255 111 111
626451.929993 3994292.010010 252.820007 255 111 111
626460.489990 3994293.739990 245.500000 255 111 111
626468.410004 3994292.000000 237.860001 255 111 111
626477.670013 3994288.239990 237.570007 255 111 111
626482.040009 3994280.180054 233.639999 255 111 111
626494.130005 3994275.410034 232.570007 255 111 111
626501.549988 3994281.939941 233.490005 255 111 111
626513.849976 3994283.280029 231.559998 255 111 111
626523.710022 3994284.930054 232.029999 255 111 111
626533.820007 3994285.449951 230.750000 255 111 111
626542.409973 3994291.069946 231.820007 255 111 111
626550.369995 3994298.810059 233.279999 255 111 111
626559.309998 3994302.390015 230.360001 255 111 111
626566.799988 3994300.739990 223.899994 255 111 111
626576.729980 3994300.400024 223.190002 255 111 111
626582.890015 3994288.540039 223.729996 255 111 111
626591.669983 3994286.810059 229.500000 255 111 111
626582.239990 3994282.829956 231.979996 255 111 111
626583.619995 3994270.589966 232.960007 255 111 111
626578.760010 3994261.859985 232.160004 255 111 111
626574.960022 3994252.880005 229.869995 255 111 111
626583.099976 3994250.719971 235.360001 255 111 111
626590.190002 3994245.160034 239.800003 255 111 111
626594.549988 3994236.560059 242.820007 255 111 111
626600.659973 3994229.619995 247.600006 255 111 111
626595.380005 3994221.229980 246.610001 255 111 111
626606.729980 3994213.119995 249.250000 255 111 111
626617.869995 3994208.180054 251.139999 255 111 111
626626.469971 3994197.239990 253.889999 255 111 111
626633.390015 3994189.300049 254.380005 255 111 111
626642.500000 3994184.869995 254.169998 255 111 111
626649.969971 3994177.280029 251.410004 255 111 111
626659.380005 3994180.500000 252.589996 255 111 111
626669.549988 3994181.770020 252.330002 255 111 111
626683.969971 3994180.599976 249.240005 255 111 111
626696.840027 3994190.290039 247.300003 255 111 111
626707.479980 3994195.729980 247.289993 255 111 111
626720.419983 3994199.050049 245.610001 255 111 111
626730.960022 3994200.030029 245.089996 255 111 111
626743.539978 3994207.650024 238.619995 255 111 111
626756.460022 3994207.069946 242.720001 255 111 111
626765.030029 3994211.650024 244.820007 255 111 111
626774.900024 3994215.660034 246.699997 255 111 111
626785.609985 3994210.699951 247.729996 255 111 111
626793.380005 3994200.410034 250.160004 255 111 111
626797.039978 3994190.949951 252.649994 255 111 111
626806.919983 3994190.229980 251.990005 255 111 111
626815.760010 3994183.359985 254.639999 255 111 111
626828.729980 3994188.250000 254.410004 255 111 111
626835.010010 3994195.229980 257.820007 255 111 111
626843.320007 3994201.030029 258.709991 255 111 111
626849.340027 3994207.930054 263.390015 255 111 111
626863.559998 3994209.680054 261.910004 255 111 111
626872.580017 3994207.020020 258.529999 255 111 111
626880.099976 3994200.609985 260.079987 255 111 111
626879.900024 3994213.469971 260.970001 255 111 111
626886.700012 3994222.959961 260.450012 255 111 111
626887.460022 3994233.310059 259.089996 255 111 111
626895.969971 3994232.099976 254.050003 255 111 111
