ply
format ascii 1.0
element vertex 80
property float x
property float y
property float z
property uchar red
property uchar green
property uchar blue
end_header
626353.649994 3993881.099976 113.860001 158 68 226
626342.600006 3993880.669983 117.660004 158 68 226
626336.269989 3993887.250000 117.849998 158 68 226
626327.470001 3993894.330017 118.970001 158 68 226
626319.640015 3993896.659973 121.580002 158 68 226
626319.790009 3993887.140015 126.150002 158 68 226
626311.769989 3993887.580017 129.990005 158 68 226
626303.470001 3993892.510010 133.229996 158 68 226
626296.920013 3993897.840027 134.649994 158 68 226
626290.690002 3993903.400024 134.600006 158 68 226
626286.459991 3993912.039978 132.639999 158 68 226
626281.579987 3993918.729980 132.330002 158 68 226
626278.359985 3993926.469971 130.429993 158 68 226
626270.119995 3993932.659973 132.880005 158 68 226
626263.890015 3993938.400024 134.850006 158 68 226
626261.299988 3993944.940002 135.399994 158 68 226
626255.460007 3993952.979980 138.320007 158 68 226
626253.050003 3993959.789978 139.089996 158 68 226
626244.949997 3993959.830017 141.220001 158 68 226
626236.770004 3993966.020020 143.369995 158 68 226
626235.630005 3993973.119995 141.350006 158 68 226
626227.809998 3993982.099976 141.339996 158 68 226
626219.809998 3993984.919983 143.550003 158 68 226
626215.750000 3993991.799988 143.570007 158 68 226
626207.960007 3993998.200012 143.630005 158 68 226
626211.880005 3993986.450012 147.800003 158 68 226
626202.029999 3993992.919983 148.789993 158 68 226
626198.179993 3993998.820007 149.830002 158 68 226
626195.080002 3994007.070007 151.279999 158 68 226
626190.660004 3993996.659973 155.429993 158 68 226
626186.979996 3994005.400024 155.990005 158 68 226
626186.300003 3994012.549988 155.820007 158 68 226
626184.149994 3994020.130005 156.110001 158 68 226
626178.089996 3994029.290039 156.190002 158 68 226
626171.809998 3994031.900024 158.270004 158 68 226
626171.789993 3994000.239990 169.619995 158 68 226
626171.789993 3994167.050049 180.919998 158 68 226
626171.779999 3993881.390015 200.179993 158 68 226
626171.779999 3994399.719971 321.899994 158 68 226
626171.839996 3994392.910034 323.769989 158 68 226
626172.020004 3994385.750000 324.489990 158 68 226
626178.669998 3994382.349976 326.299988 158 68 226
626186.059998 3994375.119995 326.250000 158 68 226
626195.110001 3994372.060059 327.029999 158 68 226
626192.130005 3994378.209961 328.700012 158 68 226
626199.240005 3994377.030029 329.820007 158 68 226
626205.500000 3994379.880005 332.190002 158 68 226
626212.309998 3994381.189941 333.799988 158 68 226
626219.320007 3994379.489990 333.989990 158 68 226
626227.500000 3994376.630005 333.980011 158 68 226
626237.289993 3994378.030029 336.470001 158 68 226
626244.350006 3994380.040039 338.359985 158 68 226
626238.240005 3994386.229980 340.239990 158 68 226
626246.009995 3994386.359985 341.220001 158 68 226
626255.509995 3994385.959961 342.059998 158 68 226
626262.739990 3994385.300049 342.089996 158 68 226
626269.839996 3994383.510010 341.940002 158 68 226
626276.910004 3994384.530029 342.609985 158 68 226
626282.989990 3994387.829956 344.339996 158 68 226
626291.480011 3994387.939941 344.760010 158 68 226
626298.899994 3994386.270020 345.440002 158 68 226
626307.070007 3994384.979980 346.299988 158 68 226
626313.630005 3994386.560059 348.420013 158 68 226
626317.890015 3994391.810059 350.630005 158 68 226
626323.910004 3994395.569946 351.760010 158 68 226
626330.040009 3994399.050049 352.250000 158 68 226
626336.070007 3994402.989990 352.329987 158 68 226
626339.029999 3994412.540039 353.779999 158 68 226
626335.910004 3994421.250000 354.700012 158 68 226
626331.989990 3994411.959961 355.630005 158 68 226
626325.989990 3994408.199951 355.920013 158 68 226
626329.640015 3994418.459961 357.019989 158 68 226
626319.579987 3994414.170044 358.100006 158 68 226
626322.649994 3994420.530029 358.489990 158 68 226
626313.209991 3994419.040039 359.369995 158 68 226
626315.359985 3994426.750000 360.339996 158 68 226
626315.239990 3994435.349976 360.619995 158 68 226
626310.869995 3994444.689941 362.049988 158 68 226
626310.839996 3994452.930054 362.170013 158 68 226
626310.369995 3994459.920044 362.890015 158 68 226
