ply
format ascii 1.0
element vertex 39
property float x
property float y
property float z
property uchar red
property uchar green
property uchar blue
end_header
388845.460022 4029029.580000 2891.129883 0 255 0
388812.539978 4028953.630001 2877.790039 0 255 0
388763.280029 4028941.910000 2874.530029 0 255 0
388717.190002 4028920.849998 2875.209961 0 255 0
388679.539978 4028886.330002 2878.070068 0 255 0
388618.299988 4028868.910004 2878.780029 0 255 0
388565.049988 4028872.360001 2881.639893 0 255 0
388514.020020 4028872.650002 2880.419922 0 255 0
388469.160004 4028849.729996 2874.219971 0 255 0
388419.130005 4028841.289993 2868.820068 0 255 0
388368.600006 4028834.070007 2868.000000 0 255 0
388329.549988 4028801.619995 2869.800049 0 255 0
388298.829987 4028761.350006 2874.300049 0 255 0
388260.119995 4028719.700012 2872.979980 0 255 0
388210.100006 4028723.260010 2880.649902 0 255 0
388150.380005 4028721.779999 2859.949951 0 255 0
388101.620003 4028675.170013 2847.879883 0 255 0
388054.790001 4028667.459991 2869.290039 0 255 0
388003.800000 4028667.679993 2866.500000 0 255 0
387954.009998 4028658.359985 2873.290039 0 255 0
387925.190002 4028618.619995 2857.149902 0 255 0
387873.070000 4028614.399994 2852.860107 0 255 0
387826.259995 4028579.980011 2856.699951 0 255 0
387782.419998 4028558.390015 2870.340088 0 255 0
387718.170013 4028522.390015 2870.419922 0 255 0
387667.329987 4028518.420013 2868.889893 0 255 0
387616.609985 4028520.309998 2875.770020 0 255 0
387559.440002 4028480.969971 2904.330078 0 255 0
387510.980011 4028469.119995 2892.840088 0 255 0
387462.169983 4028462.380005 2905.620117 0 255 0
387421.780029 4028416.549988 2905.070068 0 255 0
387374.150024 4028408.960022 2921.370117 0 255 0
387323.479980 4028404.960022 2923.219971 0 255 0
387260.960022 4028387.359985 2929.459961 0 255 0
387232.280029 4028346.969971 2918.760010 0 255 0
387189.919983 4028303.380005 2900.510010 0 255 0
387139.809998 4028295.960022 2902.909912 0 255 0
387092.599976 4028267.049988 2881.479980 0 255 0
387042.510010 4028223.250000 2855.469971 0 255 0
