ply
format ascii 1.0
element vertex 41
property float x
property float y
property float z
property uchar red
property uchar green
property uchar blue
end_header
388845.460022 4029029.580000 2891.129883 255 0 0
388812.539978 4028953.630001 2877.790039 255 0 0
388763.280029 4028941.910000 2874.530029 255 0 0
388717.190002 4028920.849998 2875.209961 255 0 0
388679.539978 4028886.330002 2878.070068 255 0 0
388618.299988 4028868.910004 2878.780029 255 0 0
388585.909973 4028826.630005 2873.989990 255 0 0
388534.469971 4028826.429993 2875.679932 255 0 0
388489.559998 4028802.479996 2872.409912 255 0 0
388467.760010 4028752.479996 2862.260010 255 0 0
388417.769989 4028742.630005 2858.070068 255 0 0
388354.630005 4028705.269989 2855.689941 255 0 0
388327.559998 4028661.769989 2850.409912 255 0 0
388313.220001 4028612.970001 2853.500000 255 0 0
388264.869995 4028626.359985 2846.350098 255 0 0
388227.190002 4028586.980011 2849.149902 255 0 0
388172.470001 4028607.609985 2840.570068 255 0 0
388120.949997 4028609.920013 2837.560059 255 0 0
388084.300003 4028574.869995 2837.800049 255 0 0
388051.389999 4028533.130005 2834.520020 255 0 0
387987.440000 4028515.609985 2836.159912 255 0 0
387936.880001 4028519.299988 2841.449951 255 0 0
387886.550003 4028513.390015 2844.830078 255 0 0
387845.850006 4028480.369995 2845.889893 255 0 0
387799.050003 4028460.260010 2848.659912 255 0 0
387755.929993 4028433.330017 2850.149902 255 0 0
387713.369995 4028398.919983 2854.120117 255 0 0
387672.670013 4028420.960022 2875.290039 255 0 0
387622.269989 4028419.900024 2867.919922 255 0 0
387582.160004 4028388.659973 2865.100098 255 0 0
387546.790009 4028364.409973 2892.459961 255 0 0
387498.420013 4028373.020020 2878.060059 255 0 0
387450.039978 4028368.820007 2900.090088 255 0 0
387399.359985 4028371.390015 2898.280029 255 0 0
387357.210022 4028360.809998 2924.750000 255 0 0
387306.820007 4028357.090027 2918.260010 255 0 0
387232.280029 4028346.969971 2918.760010 255 0 0
387180.559998 4028350.520020 2917.959961 255 0 0
387139.809998 4028295.960022 2902.909912 255 0 0
387092.599976 4028267.049988 2881.479980 255 0 0
387042.510010 4028223.250000 2855.469971 255 0 0
