ply
format ascii 1.0
element vertex 22
property float x
property float y
property float z
property uchar red
property uchar green
property uchar blue
end_header
388136.289993 4029038.619999 2871.860107 0 0 255
388089.139999 4028971.049999 2868.129883 0 0 255
388084.570000 4028920.550003 2867.100098 0 0 255
388040.049999 4028901.589996 2850.159912 0 0 255
388002.880000 4028867.229996 2853.979980 0 0 255
387958.279999 4028807.850006 2859.939941 0 0 255
387944.880001 4028759.179993 2865.699951 0 0 255
387897.900002 4028740.320007 2870.860107 0 0 255
387841.210007 4028707.940002 2873.090088 0 0 255
387800.050003 4028669.660004 2873.360107 0 0 255
387760.000000 4028668.489990 2909.010010 0 0 255
387709.380005 4028661.450012 2903.620117 0 0 255
387683.670013 4028615.070007 2897.540039 0 0 255
387632.529999 4028568.570007 2878.580078 0 0 255
387616.609985 4028520.309998 2875.770020 0 0 255
387608.290009 4028469.289978 2873.580078 0 0 255
387567.279999 4028439.270020 2876.030029 0 0 255
387520.220001 4028420.530029 2879.370117 0 0 255
387498.420013 4028373.020020 2878.060059 0 0 255
387487.479980 4028323.520020 2877.820068 0 0 255
387437.440002 4028321.469971 2885.669922 0 0 255
387390.400024 4028323.830017 2914.719971 0 0 255
